<?xml version="1.0" encoding="iso-8859-1"?>
<!-- Generator: Adobe Illustrator 19.0.0, SVG Export Plug-In . SVG Version: 6.00 Build 0)  -->
<svg version="1.1" id="Layer_1" xmlns="http://www.w3.org/2000/svg" xmlns:xlink="http://www.w3.org/1999/xlink" x="0px" y="0px"
	 viewBox="0 0 226.263 226.263" style="enable-background:new 0 0 226.263 226.263;" xml:space="preserve">
<g>
	<g>
		<g>
			<path d="M56.566,24.242c-17.823,0-32.323,14.501-32.323,32.323c0,2.233,1.807,4.04,4.04,4.04c2.233,0,4.04-1.807,4.04-4.04
				c0-13.368,10.874-24.242,24.242-24.242c2.233,0,4.04-1.807,4.04-4.04C60.605,26.05,58.8,24.242,56.566,24.242z"/>
			<path d="M96.971,167.677c0,2.233,1.807,4.04,4.04,4.04c2.233,0,4.04-1.807,4.04-4.04c0-18.935,15.408-34.343,34.343-34.343
				c2.233,0,4.04-1.807,4.04-4.04c0-2.233-1.807-4.04-4.04-4.04C116.001,125.253,96.971,144.283,96.971,167.677z"/>
			<path d="M183.839,68.687c18.935,0,34.343-15.408,34.343-34.343S202.774,0,183.839,0c-18.936,0-34.343,15.408-34.343,34.343
				c0,0.108,0.015,0.213,0.016,0.321l-46.195,9.239C97.727,23.299,78.915,8.081,56.566,8.081c-26.736,0-48.485,21.749-48.485,48.485
				c0,26.736,21.749,48.485,48.485,48.485c8.715,0,16.879-2.343,23.954-6.384l18.832,26.364
				c-11.383,10.695-18.543,25.833-18.543,42.646c0,32.303,26.282,58.586,58.586,58.586s58.586-26.282,58.586-58.586
				c0-22.119-12.329-41.406-30.47-51.374l15.88-47.638C183.542,68.666,183.688,68.687,183.839,68.687z M183.839,8.081
				c14.481,0,26.263,11.782,26.263,26.263s-11.782,26.263-26.263,26.263s-26.263-11.782-26.263-26.263S169.359,8.081,183.839,8.081z
				 M56.566,96.97c-22.277,0-40.404-18.127-40.404-40.404c0-22.278,18.126-40.404,40.404-40.404
				c22.278,0,40.404,18.126,40.404,40.404C96.971,78.844,78.844,96.97,56.566,96.97z M189.899,167.677
				c0,27.849-22.656,50.505-50.505,50.505s-50.505-22.656-50.505-50.505s22.656-50.505,50.505-50.505
				C167.244,117.172,189.899,139.828,189.899,167.677z M160.115,112.946c-6.453-2.452-13.418-3.855-20.72-3.855
				c-12.584,0-24.224,4.026-33.783,10.805L87.195,94.112c10.888-8.898,17.857-22.42,17.857-37.546c0-1.594-0.088-3.166-0.239-4.721
				l45.754-9.151c3.052,12.146,12.568,21.722,24.68,24.861L160.115,112.946z"/>
			<path d="M169.698,38.384c2.233,0,4.04-1.807,4.04-4.04c0-5.571,4.53-10.101,10.101-10.101c2.233,0,4.04-1.807,4.04-4.04
				c0-2.233-1.807-4.04-4.04-4.04c-10.026,0-18.182,8.156-18.182,18.182C165.657,36.577,167.464,38.384,169.698,38.384z"/>
		</g>
	</g>
</g>
<g>
</g>
<g>
</g>
<g>
</g>
<g>
</g>
<g>
</g>
<g>
</g>
<g>
</g>
<g>
</g>
<g>
</g>
<g>
</g>
<g>
</g>
<g>
</g>
<g>
</g>
<g>
</g>
<g>
</g>
</svg>
